<svg width="18" height="18" viewBox="0 0 18 18" fill="none" xmlns="http://www.w3.org/2000/svg">
<path d="M13.7006 0L13.75 3.61396e-06L13.7994 0H13.7994C14.4643 -3.54883e-05 15.0371 -6.60643e-05 15.4958 0.061609C15.9875 0.127708 16.4587 0.276767 16.841 0.659013C17.2232 1.04126 17.3723 1.51252 17.4384 2.00416C17.5001 2.46291 17.5 3.03577 17.5 3.70064V13.7994C17.5 14.4642 17.5001 15.0371 17.4384 15.4958C17.3723 15.9875 17.2232 16.4587 16.841 16.841C16.4587 17.2232 15.9875 17.3723 15.4958 17.4384C15.0371 17.5001 14.4642 17.5 13.7994 17.5H13.7006C13.0358 17.5 12.4629 17.5001 12.0042 17.4384C11.5125 17.3723 11.0413 17.2232 10.659 16.841C10.2768 16.4587 10.1277 15.9875 10.0616 15.4958C9.99993 15.0371 9.99996 14.4643 10 13.7994V13.7994V3.70063V3.70058C9.99996 3.03574 9.99993 2.46289 10.0616 2.00416C10.1277 1.51252 10.2768 1.04126 10.659 0.659013C11.0413 0.276767 11.5125 0.127708 12.0042 0.061609C12.4629 -6.60634e-05 13.0357 -3.54883e-05 13.7006 0H13.7006Z" fill="#141B34"/>
<path d="M3.70063 0L3.75 3.61396e-06L3.79938 0H3.79943C4.46427 -3.54883e-05 5.03711 -6.60643e-05 5.49585 0.061609C5.98748 0.127708 6.45875 0.276767 6.84099 0.659013C7.22324 1.04126 7.3723 1.51252 7.4384 2.00416C7.50007 2.46291 7.50004 3.03577 7.50001 3.70064V13.7994C7.50004 14.4642 7.50007 15.0371 7.4384 15.4958C7.3723 15.9875 7.22324 16.4587 6.84099 16.841C6.45875 17.2232 5.98748 17.3723 5.49585 17.4384C5.0371 17.5001 4.46424 17.5 3.79937 17.5H3.70063C3.03577 17.5 2.46291 17.5001 2.00416 17.4384C1.51252 17.3723 1.04126 17.2232 0.659013 16.841C0.276767 16.4587 0.127708 15.9875 0.061609 15.4958C-6.60634e-05 15.0371 -3.54883e-05 14.4643 0 13.7994V13.7994V3.70063V3.70058C-3.54883e-05 3.03574 -6.60643e-05 2.46289 0.061609 2.00416C0.127708 1.51252 0.276767 1.04126 0.659013 0.659013C1.04126 0.276767 1.51252 0.127708 2.00416 0.061609C2.46289 -6.60634e-05 3.03573 -3.54883e-05 3.70058 0H3.70063Z" fill="#141B34"/>
</svg>
