<svg width="24" height="24" viewBox="0 0 24 24" fill="none" xmlns="http://www.w3.org/2000/svg">
<path d="M22.4 20H1.6C0.716667 20 0 19.2833 0 18.4V5.6C0 4.71667 0.716667 4 1.6 4H22.4C23.2833 4 24 4.71667 24 5.6V18.4C24 19.2833 23.2833 20 22.4 20ZM18.5287 15.26V16C18.6347 16.0147 18.7567 16.0233 18.8807 16.0233H18.8913C19.8207 16.0233 20.2613 15.662 20.6413 14.592L22.3173 9.892H21.348L20.224 13.5227H20.204L19.08 9.892H18.0827L19.6993 14.3673L19.6127 14.6393C19.554 15.0053 19.24 15.2813 18.8627 15.2813C18.844 15.2813 18.8253 15.2807 18.8067 15.2793H18.8093C18.7347 15.276 18.588 15.2673 18.5293 15.26H18.5287ZM3.80867 9.36933H3.79133C3.20067 9.386 2.69067 9.71533 2.41933 10.1967L2.41533 10.2047C1.85267 11.1727 2.21067 12.654 2.83333 13.556C3.12533 13.9827 3.44533 14.4 3.86733 14.4H3.89C4.06667 14.3887 4.23 14.3427 4.37733 14.2687L4.37 14.272C4.548 14.1827 4.75733 14.13 4.97867 14.128C5.19267 14.1293 5.39533 14.1813 5.57333 14.272L5.566 14.2687C5.70933 14.3433 5.878 14.3887 6.05733 14.3927H6.05867H6.07667C6.54667 14.384 6.84133 13.9527 7.102 13.5727C7.288 13.3033 7.442 12.9933 7.55 12.662L7.55733 12.6367V12.63L7.54533 12.6247C7.02533 12.388 6.67 11.8747 6.66667 11.2773V11.2767C6.672 10.746 6.95133 10.282 7.37 10.0187L7.376 10.0153L7.388 10.0073C7.11533 9.61533 6.672 9.358 6.168 9.34467H6.166C6.14267 9.34467 6.11867 9.34467 6.09533 9.34467C5.798 9.36067 5.52067 9.432 5.26933 9.54933L5.28333 9.54333C5.16867 9.59933 5.03533 9.64 4.89467 9.65733L4.88867 9.658C4.73667 9.64133 4.598 9.6 4.47133 9.53733L4.47867 9.54067C4.28333 9.446 4.05467 9.384 3.814 9.368H3.80867V9.36933ZM15.884 10.58C16.4707 10.58 16.7947 10.8547 16.7947 11.3527V11.692L15.604 11.7627C14.4873 11.83 13.8973 12.2827 13.8973 13.0713C13.9053 13.81 14.5053 14.4053 15.2453 14.4053C15.3013 14.4053 15.356 14.402 15.41 14.3953L15.4033 14.396C15.416 14.3967 15.4313 14.3967 15.4467 14.3967C16.026 14.3967 16.5327 14.0847 16.8073 13.6187L16.8113 13.6113H16.8313V14.346H17.7147V11.2887C17.7147 10.402 17.0073 9.83 15.9127 9.83C14.9033 9.83 14.1527 10.4087 14.1227 11.2053H14.9827C15.0787 10.8393 15.406 10.574 15.7953 10.574C15.8267 10.574 15.858 10.576 15.8887 10.5793L15.8847 10.5787L15.884 10.58ZM9.33333 8.20267V14.3467H10.2873V12.2453H11.6053C11.636 12.2473 11.6727 12.248 11.7087 12.248C12.7873 12.248 13.6613 11.374 13.6613 10.2953C13.6613 10.268 13.6607 10.2413 13.66 10.2147V10.2187C13.6613 10.1933 13.662 10.164 13.662 10.134C13.662 9.066 12.7967 8.20067 11.7287 8.20067C11.6967 8.20067 11.6647 8.20133 11.6333 8.20267H11.638H9.33333ZM6.16867 7.73333C5.77267 7.772 5.42733 7.96 5.184 8.24L5.18267 8.242C4.96067 8.49067 4.82533 8.82067 4.82533 9.182C4.82533 9.21333 4.82667 9.24467 4.82867 9.27533V9.27133C4.85133 9.27133 4.87533 9.274 4.902 9.274C5.27533 9.25267 5.60267 9.074 5.82067 8.80267L5.82267 8.8C6.04067 8.542 6.17333 8.206 6.17333 7.838C6.17333 7.80133 6.172 7.76467 6.16933 7.728V7.73267L6.16867 7.73333ZM15.6593 13.6673C15.154 13.6673 14.8267 13.424 14.8267 13.048C14.8267 12.66 15.14 12.4367 15.7333 12.4013L16.7933 12.3347V12.682C16.77 13.234 16.3167 13.672 15.7613 13.672C15.7253 13.672 15.69 13.67 15.6547 13.6667L15.6593 13.6673ZM11.3807 11.4473H10.2847V9.00667H11.3847C11.4313 9 11.4853 8.996 11.5407 8.996C12.1747 8.996 12.6887 9.51 12.6887 10.144C12.6887 10.172 12.6873 10.2007 12.6853 10.228V10.224C12.6873 10.248 12.688 10.2767 12.688 10.3053C12.688 10.9413 12.172 11.4573 11.536 11.4573C11.4813 11.4573 11.4267 11.4533 11.374 11.446L11.38 11.4467L11.3807 11.4473Z" fill="black"/>
</svg>
