<svg width="24" height="24" viewBox="0 0 24 24" fill="none" xmlns="http://www.w3.org/2000/svg">
<path d="M12 0V4H4V12H0C0 18.64 5.36 24 12 24C18.64 24 24 18.64 24 12C24 5.36 18.64 0 12 0Z" fill="#2A5F9E"/>
<path d="M12 0C10.12 0 8.36 0.44 6.76 1.2V3.6H3.6V6.76H1.2C0.44 8.36 0 10.12 0 12H4.8V6L9.6 12H12V9L8.64 4.8H12V0Z" fill="white"/>
<path d="M5.36011 4.79993L11.2001 11.9999H12.0001V10.0399L7.76011 4.79993H5.36011Z" fill="#ED4C5C"/>
<path d="M12 1.19995H6.75995C4.35995 2.35995 2.35995 4.35995 1.19995 6.75995V12H3.59995V3.59995H12V1.19995Z" fill="#ED4C5C"/>
<path d="M2.3999 13.48L3.2799 12.4L2.9999 13.8L4.3999 13.84L3.1599 14.48L3.9999 15.6L2.7599 15.04L2.3999 16.4L2.0399 15.04L0.799902 15.6L1.6399 14.48L0.399902 13.84L1.7999 13.8L1.5199 12.4L2.3999 13.48Z" fill="white"/>
<path d="M19.9999 7.28002L20.7199 6.40002L20.4799 7.52002L21.5999 7.56002L20.5999 8.08002L21.2799 8.96002L20.2799 8.48002L19.9999 9.60002L19.7199 8.48002L18.7199 8.96002L19.3999 8.08002L18.3999 7.56002L19.5199 7.52002L19.2799 6.40002L19.9999 7.28002Z" fill="white"/>
<path d="M19.9999 15.28L20.7199 14.4L20.4799 15.52L21.5999 15.56L20.5999 16.08L21.2799 16.96L20.2799 16.48L19.9999 17.6L19.7199 16.48L18.7199 16.96L19.3999 16.08L18.3999 15.56L19.5199 15.52L19.2799 14.4L19.9999 15.28Z" fill="white"/>
<path d="M15.9999 9.68005L16.7199 8.80005L16.4799 9.92005L17.5999 9.96005L16.5999 10.48L17.2799 11.36L16.2799 10.88L15.9999 12L15.7199 10.88L14.7199 11.36L15.3999 10.48L14.3999 9.96005L15.5199 9.92005L15.2799 8.80005L15.9999 9.68005Z" fill="white"/>
</svg>
