<svg width="24" height="24" viewBox="0 0 24 24" fill="none" xmlns="http://www.w3.org/2000/svg">
<path d="M12 24C18.6274 24 24 18.6274 24 12C24 5.37258 18.6274 0 12 0C5.37258 0 0 5.37258 0 12C0 18.6274 5.37258 24 12 24Z" fill="#75A843"/>
<path d="M12 24C18.6274 24 24 18.6274 24 12C24 5.37258 18.6274 0 12 0C5.37258 0 0 5.37258 0 12C0 18.6274 5.37258 24 12 24Z" fill="#699635"/>
<path d="M9.59996 17.64C12.7148 17.64 15.24 15.1149 15.24 12C15.24 8.8851 12.7148 6.35999 9.59996 6.35999C6.48507 6.35999 3.95996 8.8851 3.95996 12C3.95996 15.1149 6.48507 17.64 9.59996 17.64Z" fill="#ED4C5C"/>
</svg>
