<svg width="22" height="20" viewBox="0 0 22 20" fill="none" xmlns="http://www.w3.org/2000/svg">
<path d="M10.75 3.75L10.75 17.75" stroke="#141B34" stroke-width="1.5" stroke-linecap="round"/>
<path d="M4.73056 1.03544C8.07175 1.6716 10.0631 3.00231 10.75 3.76628C11.4369 3.00231 13.4282 1.6716 16.7694 1.03544C18.4621 0.713154 19.3084 0.552012 20.0292 1.16964C20.75 1.78727 20.75 2.79022 20.75 4.79612V12.005C20.75 13.8391 20.75 14.7561 20.2874 15.3287C19.8248 15.9012 18.8064 16.0951 16.7694 16.483C14.9537 16.8287 13.5366 17.3795 12.5108 17.9331C11.5016 18.4777 10.997 18.75 10.75 18.75C10.503 18.75 9.99838 18.4777 8.98918 17.9331C7.96344 17.3795 6.54633 16.8287 4.73056 16.483C2.69365 16.0951 1.6752 15.9012 1.2126 15.3287C0.75 14.7561 0.75 13.8391 0.75 12.005V4.79612C0.75 2.79022 0.75 1.78727 1.47078 1.16964C2.19157 0.552012 3.0379 0.713154 4.73056 1.03544Z" stroke="#141B34" stroke-width="1.5" stroke-linecap="round" stroke-linejoin="round"/>
</svg>
