<svg width="19" height="22" viewBox="0 0 19 22" fill="none" xmlns="http://www.w3.org/2000/svg">
<path d="M9.81055 2.52601e-07C11.6482 -1.49677e-05 13.104 0.000163935 14.2432 0.153321C15.4155 0.310962 16.364 0.643293 17.1123 1.3916C17.8606 2.13991 18.1929 3.08844 18.3506 4.26074C18.5037 5.3999 18.5039 6.85573 18.5039 8.69336V15.75C18.5039 15.8172 18.4912 15.8814 18.4746 15.9434C18.3845 16.403 17.9802 16.75 17.4941 16.75C16.6657 16.75 15.9941 17.4216 15.9941 18.25C15.9941 19.0784 16.6657 19.75 17.4941 19.75C18.0464 19.75 18.4941 20.1977 18.4941 20.75C18.4941 21.3023 18.0464 21.75 17.4941 21.75H3.46387C1.53716 21.75 0 20.1692 0 18.25C5.40693e-09 18.198 0.00167032 18.1462 0.00390625 18.0947V8.69336C0.00389072 6.85571 0.00406941 5.39991 0.157227 4.26074C0.314869 3.08844 0.647199 2.13991 1.39551 1.3916C2.14382 0.643293 3.09234 0.310963 4.26465 0.153321C5.40381 0.000164003 6.85962 -1.49677e-05 8.69727 2.52601e-07H9.81055ZM3.46387 16.75C2.66912 16.75 2 17.4078 2 18.25C2 19.0922 2.66912 19.75 3.46387 19.75H14.3311C14.1151 19.2954 13.9941 18.7868 13.9941 18.25C13.9941 17.7132 14.1151 17.2046 14.3311 16.75H3.46387ZM5.85352 1.75C5.35758 1.75005 5.25396 1.85368 5.25391 2.34961V5.44043C5.25391 6.18024 5.25415 6.54984 5.49219 6.69336C5.7405 6.84304 6.06721 6.66362 6.74219 6.2666C7.15756 6.02227 7.4562 5.90049 7.75391 5.90039C8.05249 5.90029 8.35078 6.02259 8.76562 6.2666C9.4406 6.66362 9.76726 6.84305 10.0156 6.69336C10.2537 6.54984 10.2539 6.18023 10.2539 5.44043V2.34961C10.2539 1.85368 10.1502 1.75005 9.6543 1.75H5.85352Z" fill="#141B34"/>
</svg>
