<svg width="24" height="22" viewBox="0 0 24 22" fill="none" xmlns="http://www.w3.org/2000/svg">
<path d="M23.9999 10.8093C23.9999 6.05175 21.2312 1.941 17.2173 0V21.6185C21.2312 19.6776 23.9999 15.5668 23.9999 10.8093Z" fill="#F11E44"/>
<path d="M0 10.8093C0 15.5668 2.76867 19.6776 6.78263 21.6186V0C2.76867 1.941 0 6.05175 0 10.8093Z" fill="#F11E44"/>
<path d="M14.087 12.3745L16.174 11.331L15.1305 10.8093V9.76579L13.0435 10.8093L14.087 8.72231H13.0435L12.0001 7.1571L10.9566 8.72231H9.91309L10.9566 10.8093L8.86961 9.76579V10.8093L7.82617 11.331L9.91309 12.3745L9.39138 13.418H11.4783V14.9832H12.5218V13.418H14.6088L14.087 12.3745Z" fill="#F11E44"/>
</svg>
