<svg width="24" height="24" viewBox="0 0 24 24" fill="none" xmlns="http://www.w3.org/2000/svg">
<path d="M19.5 3.41003H4.5C2.84315 3.41003 1.5 4.75318 1.5 6.41004V17.59C1.5 19.2469 2.84315 20.59 4.5 20.59H19.5C21.1569 20.59 22.5 19.2469 22.5 17.59V6.41003C22.5 4.75318 21.1569 3.41003 19.5 3.41003Z" stroke="#020202" stroke-width="1.5" stroke-miterlimit="10"/>
<path d="M11.05 15.82H9.13998C8.63342 15.82 8.1476 15.6188 7.78941 15.2606C7.43121 14.9024 7.22998 14.4166 7.22998 13.91V10.09C7.22998 9.58343 7.43121 9.09761 7.78941 8.73942C8.1476 8.38122 8.63342 8.17999 9.13998 8.17999H11.05" stroke="#020202" stroke-width="1.5" stroke-miterlimit="10"/>
<path d="M17.7299 15.82H15.8199C15.3133 15.82 14.8275 15.6188 14.4693 15.2606C14.1111 14.9024 13.9099 14.4166 13.9099 13.91V10.09C13.9099 9.58343 14.1111 9.09761 14.4693 8.73942C14.8275 8.38122 15.3133 8.17999 15.8199 8.17999H17.7299" stroke="#020202" stroke-width="1.5" stroke-miterlimit="10"/>
</svg>
