<svg width="24" height="24" viewBox="0 0 24 24" fill="none" xmlns="http://www.w3.org/2000/svg">
<path d="M32.6155 20.3077C32.6155 21.287 32.2265 22.2261 31.5341 22.9185C30.8416 23.611 29.9025 24 28.9232 24H3.07707C2.09781 24 1.15866 23.611 0.466218 22.9185C-0.226224 22.2261 -0.615234 21.287 -0.615234 20.3077V3.69231C-0.615234 2.71305 -0.226224 1.77389 0.466218 1.08145C1.15866 0.38901 2.09781 0 3.07707 0H28.9232C29.9025 0 30.8416 0.38901 31.5341 1.08145C32.2265 1.77389 32.6155 2.71305 32.6155 3.69231V20.3077Z" fill="#DE2910"/>
<path d="M9.66413 3.67114L10.3435 3.99976L10.8872 3.47729L10.7847 4.22499L11.4494 4.5813L10.7072 4.71422L10.5743 5.45637L10.218 4.79176L9.47028 4.89422L9.99274 4.35053L9.66413 3.67114ZM13.9703 6.38591L13.6417 7.06437L14.1641 7.60899L13.4174 7.5056L13.0611 8.17114L12.9281 7.42806L12.1851 7.29514L12.8506 6.93883L12.7472 6.19206L13.2918 6.71453L13.9703 6.38591ZM13.0869 9.87422L13.3343 10.5868L14.0884 10.6025L13.4875 11.0576L13.7063 11.7804L13.0869 11.3493L12.4675 11.7804L12.6854 11.0576L12.0844 10.6025L12.8386 10.5868L13.0869 9.87422ZM9.66413 12.9019L10.3435 13.2305L10.8872 12.7081L10.7847 13.4558L11.4494 13.8121L10.7072 13.945L10.5743 14.6871L10.218 14.0225L9.47028 14.125L9.99274 13.5813L9.66413 12.9019ZM5.84628 5.49329L6.70382 7.95883L9.31244 8.01237L7.23274 9.58899L7.98874 12.0868L5.84628 10.5961L3.70382 12.0868L4.45982 9.58899L2.38013 8.01237L4.98874 7.95883L5.84628 5.49329Z" fill="#FFDE02"/>
</svg>
