<svg width="22" height="22" viewBox="0 0 22 22" fill="none" xmlns="http://www.w3.org/2000/svg">
<circle cx="10.75" cy="10.75" r="10" stroke="#141B34" stroke-width="1.5"/>
<path d="M7.75 14C7.33579 14 7 14.3358 7 14.75C7 15.1642 7.33579 15.5 7.75 15.5V14ZM13.75 15.5C14.1642 15.5 14.5 15.1642 14.5 14.75C14.5 14.3358 14.1642 14 13.75 14V15.5ZM13.3067 10.3809C13.5843 10.0734 13.56 9.59918 13.2525 9.32164C12.945 9.0441 12.4708 9.06838 12.1933 9.37586L13.3067 10.3809ZM11.8107 10.9191L12.3674 11.4216L12.3674 11.4216L11.8107 10.9191ZM9.68934 10.9191L9.13259 11.4216L9.68934 10.9191ZM9.30675 9.37586C9.02921 9.06838 8.55496 9.0441 8.24747 9.32164C7.93999 9.59918 7.91572 10.0734 8.19325 10.3809L9.30675 9.37586ZM11.5 5.75C11.5 5.33579 11.1642 5 10.75 5C10.3358 5 10 5.33579 10 5.75H11.5ZM7.75 14.75V15.5H13.75V14.75V14H7.75V14.75ZM12.75 9.87839L12.1933 9.37586L11.2539 10.4166L11.8107 10.9191L12.3674 11.4216L13.3067 10.3809L12.75 9.87839ZM9.68934 10.9191L10.2461 10.4166L9.30675 9.37586L8.75 9.87839L8.19325 10.3809L9.13259 11.4216L9.68934 10.9191ZM11.8107 10.9191L11.2539 10.4166C10.9893 10.7097 10.841 10.8715 10.7252 10.9695C10.6227 11.0561 10.6507 11 10.75 11V11.75V12.5C11.16 12.5 11.4683 12.3054 11.6935 12.1151C11.9053 11.936 12.132 11.6824 12.3674 11.4216L11.8107 10.9191ZM9.68934 10.9191L9.13259 11.4216C9.36796 11.6824 9.59472 11.936 9.8065 12.1151C10.0317 12.3054 10.34 12.5 10.75 12.5V11.75V11C10.8493 11 10.8773 11.0561 10.7748 10.9695C10.659 10.8715 10.5107 10.7097 10.2461 10.4166L9.68934 10.9191ZM10.75 11.75H11.5V5.75H10.75H10V11.75H10.75Z" fill="#141B34"/>
</svg>
