<svg width="18" height="20" viewBox="0 0 18 20" fill="none" xmlns="http://www.w3.org/2000/svg">
<path d="M0.750244 4.75037L0.750245 18.7504" stroke="#141B34" stroke-width="1.5" stroke-linecap="round" stroke-linejoin="round"/>
<path d="M8.50782 1.65901C5.2026 -0.024661 2.6015 0.961808 1.30451 1.96956C1.07072 2.15121 0.953828 2.24204 0.852036 2.45004C0.750244 2.65804 0.750244 2.85175 0.750244 3.23916V12.4823C1.71994 11.3846 4.62903 9.68316 8.50782 11.659C11.9742 13.4248 14.9243 12.6928 16.3199 11.9299C16.5135 11.824 16.6104 11.7711 16.6803 11.6532C16.7502 11.5353 16.7502 11.4073 16.7502 11.1512V3.62426C16.7502 2.79575 16.7502 2.38149 16.5529 2.23142C16.3556 2.08135 15.8939 2.20937 14.9704 2.46541C13.3903 2.90356 11.0926 2.97569 8.50782 1.65901Z" stroke="#141B34" stroke-width="1.5" stroke-linecap="round" stroke-linejoin="round"/>
</svg>
