<svg width="22" height="22" viewBox="0 0 22 22" fill="none" xmlns="http://www.w3.org/2000/svg">
<path d="M10.7497 0C11.6157 0 12.3904 0.277033 13.2262 0.746094C14.0361 1.20058 14.9646 1.87111 16.1315 2.71484L17.6403 3.80664C18.5764 4.48348 19.3243 5.02401 19.8883 5.52441C20.4708 6.04123 20.9068 6.55702 21.1833 7.20508C21.4603 7.85463 21.528 8.52046 21.4909 9.28809C21.455 10.0289 21.3174 10.9226 21.1461 12.0371L20.8307 14.0889C20.5874 15.6725 20.3937 16.9336 20.109 17.916C19.8147 18.9319 19.4 19.7389 18.6588 20.3555C17.9207 20.9694 17.0406 21.2426 15.9665 21.373C14.9216 21.4999 13.6037 21.5 11.9391 21.5H9.56119C7.89624 21.5 6.57781 21.5 5.53287 21.373C4.45886 21.2426 3.57956 20.9693 2.84146 20.3555C2.10021 19.7389 1.68566 18.932 1.39127 17.916C1.10658 16.9335 0.911972 15.6726 0.66861 14.0889L0.354157 12.0371C0.182875 10.9226 0.045297 10.0289 0.00943052 9.28809C-0.0277339 8.52046 0.0390271 7.85463 0.316071 7.20508C0.592513 6.55694 1.02845 6.04127 1.61099 5.52441C2.17516 5.02389 2.9236 4.48369 3.86002 3.80664L5.36881 2.71484C6.5357 1.87112 7.46422 1.20055 8.27408 0.746094C9.10979 0.27715 9.88377 5.02888e-05 10.7497 0ZM8.74967 15.75C8.19749 15.7501 7.74966 16.1978 7.74966 16.75C7.74966 17.3022 8.19749 17.7499 8.74967 17.75H12.7497C13.3019 17.75 13.7497 17.3023 13.7497 16.75C13.7497 16.1977 13.3019 15.75 12.7497 15.75H8.74967Z" fill="#141B34"/>
</svg>
