<svg width="22" height="22" viewBox="0 0 22 22" fill="none" xmlns="http://www.w3.org/2000/svg">
<path fill-rule="evenodd" clip-rule="evenodd" d="M5.1747 4.71668C5.33139 5.24628 5.02908 5.80261 4.49949 5.9593C2.91178 6.42903 2.42116 6.74976 2.17994 7.16522C2.02579 7.43071 1.94906 7.78052 2.03685 8.4728C2.12837 9.19449 2.37421 10.1255 2.73943 11.4963L3.75179 15.296C4.11703 16.6669 4.36699 17.5967 4.64648 18.2677C4.91466 18.9114 5.15442 19.1741 5.41765 19.3252C5.68172 19.4768 6.03257 19.5523 6.72966 19.461C7.45491 19.3661 8.39085 19.1161 9.76701 18.7453L10.2397 18.6179C10.773 18.4742 11.3218 18.79 11.4655 19.3233C11.6092 19.8565 11.2934 20.4053 10.7601 20.549L10.2196 20.6946C8.92839 21.0426 7.86286 21.3298 6.98925 21.4441C6.07225 21.5642 5.21836 21.517 4.4219 21.0597C3.62461 20.602 3.15515 19.8886 2.80028 19.0368C2.46269 18.2264 2.17979 17.1645 1.83741 15.8793L0.788668 11.943C0.446198 10.6577 0.163247 9.59586 0.0527358 8.72441C-0.0634558 7.80817 -0.0112698 6.95602 0.450336 6.16099C1.13635 4.97945 2.40428 4.49348 3.93209 4.04147C4.46168 3.88479 5.01802 4.18709 5.1747 4.71668Z" fill="#141B34"/>
<path d="M9.33219 0.4106C10.0625 -0.00863755 10.8538 -0.0619066 11.7443 0.052202C12.6019 0.162142 13.6542 0.442784 14.9591 0.790483L16.0197 1.07271C17.3247 1.42038 18.3769 1.70142 19.175 2.03267C20.0035 2.37657 20.6635 2.81565 21.0861 3.54341C21.5091 4.27187 21.5624 5.06149 21.4474 5.94869C21.3368 6.80238 21.0548 7.84975 20.7052 9.14693L19.6535 13.0502C19.304 14.3474 19.0211 15.3947 18.6877 16.1889C18.3412 17.0142 17.8987 17.6698 17.1681 18.0893C16.4379 18.5086 15.6466 18.5618 14.756 18.4477C13.8983 18.3378 12.8453 18.0572 11.5402 17.7094L10.4806 17.4272C9.17547 17.0795 8.12255 16.7985 7.32438 16.4672C6.49609 16.1234 5.83676 15.6841 5.41423 14.9565C4.99126 14.228 4.93792 13.4384 5.0529 12.5512C5.16355 11.6976 5.44554 10.6501 5.79509 9.35298L6.84684 5.45064C7.19632 4.15363 7.47835 3.10617 7.81169 2.31197C8.15826 1.4864 8.6013 0.830204 9.33219 0.4106ZM10.8009 8.83834C10.4007 8.7317 9.98964 8.96937 9.88298 9.36959C9.77636 9.76975 10.0141 10.1808 10.4142 10.2876L12.8009 10.9233C13.2011 11.0299 13.6121 10.7921 13.7189 10.392C13.8256 9.9918 13.5869 9.58072 13.1867 9.47408L10.8009 8.83834ZM11.8234 5.04146C11.4233 4.93506 11.0131 5.1727 10.9064 5.57271C10.7998 5.97296 11.0374 6.38404 11.4377 6.49068L16.2101 7.76216C16.6103 7.86878 17.0213 7.631 17.1281 7.23091C17.2347 6.8307 16.997 6.41963 16.5968 6.31294L11.8234 5.04146Z" fill="#141B34"/>
</svg>
