<svg width="24" height="24" viewBox="0 0 24 24" fill="none" xmlns="http://www.w3.org/2000/svg">
<g clip-path="url(#clip0_5102_2987)">
<path d="M22.345 3.93103L1.65531 3.93103C0.855446 3.93103 0.207031 4.57945 0.207031 5.37931L0.207031 18.6207C0.207031 19.4205 0.855446 20.069 1.65531 20.069H22.345C23.1448 20.069 23.7932 19.4205 23.7932 18.6207V5.37931C23.7932 4.57945 23.1448 3.93103 22.345 3.93103Z" stroke="#D8DBDF" stroke-width="1.44"/>
<mask id="path-2-inside-1_5102_2987" fill="white">
<path fill-rule="evenodd" clip-rule="evenodd" d="M8.79251 16.5065V17.1176V17.7287H8.52466V17.5803C8.43971 17.6904 8.31082 17.7594 8.13562 17.7594C7.79018 17.7594 7.5194 17.491 7.5194 17.1176C7.5194 16.7444 7.79018 16.4757 8.13562 16.4757C8.31082 16.4757 8.43971 16.5448 8.52466 16.6549V16.5065H8.79251ZM8.16893 16.7263C7.93708 16.7263 7.79519 16.9028 7.79519 17.1176C7.79519 17.3324 7.93708 17.5089 8.16893 17.5089C8.39047 17.5089 8.54002 17.34 8.54002 17.1176C8.54002 16.8951 8.39047 16.7263 8.16893 16.7263ZM17.8438 17.1176C17.8438 16.9028 17.9857 16.7263 18.2175 16.7263C18.4394 16.7263 18.5886 16.8951 18.5886 17.1176C18.5886 17.34 18.4394 17.5089 18.2175 17.5089C17.9857 17.5089 17.8438 17.3324 17.8438 17.1176ZM18.8414 16.0156V17.1176V17.7287H18.5733V17.5803C18.4883 17.6904 18.3594 17.7594 18.1842 17.7594C17.8388 17.7594 17.568 17.491 17.568 17.1176C17.568 16.7444 17.8388 16.4757 18.1842 16.4757C18.3594 16.4757 18.4883 16.5448 18.5733 16.6549V16.0156H18.8414ZM12.1173 16.7137C12.2898 16.7137 12.4007 16.8211 12.4291 17.0102H11.7899C11.8185 16.8337 11.9264 16.7137 12.1173 16.7137ZM11.509 17.1176C11.509 16.7365 11.7615 16.4757 12.1226 16.4757C12.4677 16.4757 12.7049 16.7365 12.7075 17.1176C12.7075 17.1533 12.7049 17.1867 12.7022 17.2197H11.7875C11.8262 17.4398 11.9834 17.5191 12.1559 17.5191C12.2795 17.5191 12.4111 17.4729 12.5143 17.3912L12.6456 17.5882C12.496 17.7135 12.3261 17.7594 12.1406 17.7594C11.7719 17.7594 11.509 17.5063 11.509 17.1176ZM15.3568 17.1176C15.3568 16.9028 15.4987 16.7263 15.7305 16.7263C15.952 16.7263 16.1016 16.8951 16.1016 17.1176C16.1016 17.34 15.952 17.5089 15.7305 17.5089C15.4987 17.5089 15.3568 17.3324 15.3568 17.1176ZM16.3541 16.5065V17.1176V17.7287H16.0863V17.5803C16.001 17.6904 15.8724 17.7594 15.6972 17.7594C15.3518 17.7594 15.081 17.491 15.081 17.1176C15.081 16.7444 15.3518 16.4757 15.6972 16.4757C15.8724 16.4757 16.001 16.5448 16.0863 16.6549V16.5065H16.3541ZM13.8441 17.1176C13.8441 17.4884 14.1043 17.7594 14.5013 17.7594C14.6869 17.7594 14.8105 17.7185 14.9444 17.6137L14.8158 17.3989C14.7152 17.4706 14.6096 17.5089 14.4934 17.5089C14.2795 17.5063 14.1223 17.3529 14.1223 17.1176C14.1223 16.8823 14.2795 16.7289 14.4934 16.7263C14.6096 16.7263 14.7152 16.7646 14.8158 16.8363L14.9444 16.6215C14.8105 16.5167 14.6869 16.4757 14.5013 16.4757C14.1043 16.4757 13.8441 16.7468 13.8441 17.1176ZM16.9727 16.6549C17.0423 16.5474 17.1429 16.4757 17.2975 16.4757C17.3517 16.4757 17.429 16.486 17.4883 16.5091L17.4057 16.7596C17.3491 16.7365 17.2924 16.7289 17.2382 16.7289C17.063 16.7289 16.9754 16.8413 16.9754 17.0435V17.7287H16.7072V16.5065H16.9727V16.6549ZM10.1173 16.6036C9.98837 16.5193 9.81082 16.4757 9.61493 16.4757C9.30284 16.4757 9.10195 16.6241 9.10195 16.867C9.10195 17.0664 9.25153 17.1893 9.52704 17.2276L9.65357 17.2455C9.80047 17.266 9.86982 17.3043 9.86982 17.3734C9.86982 17.4679 9.77188 17.5217 9.58898 17.5217C9.40344 17.5217 9.26953 17.4629 9.17924 17.3938L9.053 17.6008C9.19989 17.7082 9.38544 17.7594 9.58633 17.7594C9.94207 17.7594 10.1483 17.5932 10.1483 17.3605C10.1483 17.1457 9.98602 17.0333 9.71788 16.9949L9.59163 16.9768C9.47573 16.9616 9.38279 16.9388 9.38279 16.8568C9.38279 16.7672 9.47039 16.7137 9.61728 16.7137C9.77453 16.7137 9.92672 16.7725 10.0014 16.8185L10.1173 16.6036ZM13.2489 16.6549C13.3182 16.5474 13.4188 16.4757 13.5733 16.4757C13.6276 16.4757 13.7049 16.486 13.7642 16.5091L13.6816 16.7596C13.625 16.7365 13.5683 16.7289 13.514 16.7289C13.3388 16.7289 13.2512 16.8413 13.2512 17.0435V17.7287H12.9834V16.5065H13.2489V16.6549ZM11.2875 16.5065H10.8494V16.1356H10.5786V16.5065H10.3288V16.7494H10.5786V17.3069C10.5786 17.5906 10.6895 17.7594 11.0064 17.7594C11.1226 17.7594 11.2565 17.7237 11.3415 17.6649L11.2642 17.4372C11.1842 17.4831 11.0966 17.5063 11.027 17.5063C10.8931 17.5063 10.8494 17.4243 10.8494 17.3017V16.7494H11.2875V16.5065ZM7.2825 16.9616V17.7287H7.01171V17.0485C7.01171 16.8413 6.92411 16.7263 6.74122 16.7263C6.56333 16.7263 6.43973 16.839 6.43973 17.0511V17.7287H6.16894V17.0485C6.16894 16.8413 6.07898 16.7263 5.90109 16.7263C5.71791 16.7263 5.59935 16.839 5.59935 17.0511V17.7287H5.32886V16.5065H5.597V16.6572C5.69759 16.5141 5.8262 16.4757 5.95774 16.4757C6.14593 16.4757 6.27988 16.5577 6.36483 16.6932C6.47837 16.5217 6.64062 16.4731 6.79786 16.4757C7.09695 16.4784 7.2825 16.6727 7.2825 16.9616Z"/>
</mask>
<path fill-rule="evenodd" clip-rule="evenodd" d="M8.79251 16.5065V17.1176V17.7287H8.52466V17.5803C8.43971 17.6904 8.31082 17.7594 8.13562 17.7594C7.79018 17.7594 7.5194 17.491 7.5194 17.1176C7.5194 16.7444 7.79018 16.4757 8.13562 16.4757C8.31082 16.4757 8.43971 16.5448 8.52466 16.6549V16.5065H8.79251ZM8.16893 16.7263C7.93708 16.7263 7.79519 16.9028 7.79519 17.1176C7.79519 17.3324 7.93708 17.5089 8.16893 17.5089C8.39047 17.5089 8.54002 17.34 8.54002 17.1176C8.54002 16.8951 8.39047 16.7263 8.16893 16.7263ZM17.8438 17.1176C17.8438 16.9028 17.9857 16.7263 18.2175 16.7263C18.4394 16.7263 18.5886 16.8951 18.5886 17.1176C18.5886 17.34 18.4394 17.5089 18.2175 17.5089C17.9857 17.5089 17.8438 17.3324 17.8438 17.1176ZM18.8414 16.0156V17.1176V17.7287H18.5733V17.5803C18.4883 17.6904 18.3594 17.7594 18.1842 17.7594C17.8388 17.7594 17.568 17.491 17.568 17.1176C17.568 16.7444 17.8388 16.4757 18.1842 16.4757C18.3594 16.4757 18.4883 16.5448 18.5733 16.6549V16.0156H18.8414ZM12.1173 16.7137C12.2898 16.7137 12.4007 16.8211 12.4291 17.0102H11.7899C11.8185 16.8337 11.9264 16.7137 12.1173 16.7137ZM11.509 17.1176C11.509 16.7365 11.7615 16.4757 12.1226 16.4757C12.4677 16.4757 12.7049 16.7365 12.7075 17.1176C12.7075 17.1533 12.7049 17.1867 12.7022 17.2197H11.7875C11.8262 17.4398 11.9834 17.5191 12.1559 17.5191C12.2795 17.5191 12.4111 17.4729 12.5143 17.3912L12.6456 17.5882C12.496 17.7135 12.3261 17.7594 12.1406 17.7594C11.7719 17.7594 11.509 17.5063 11.509 17.1176ZM15.3568 17.1176C15.3568 16.9028 15.4987 16.7263 15.7305 16.7263C15.952 16.7263 16.1016 16.8951 16.1016 17.1176C16.1016 17.34 15.952 17.5089 15.7305 17.5089C15.4987 17.5089 15.3568 17.3324 15.3568 17.1176ZM16.3541 16.5065V17.1176V17.7287H16.0863V17.5803C16.001 17.6904 15.8724 17.7594 15.6972 17.7594C15.3518 17.7594 15.081 17.491 15.081 17.1176C15.081 16.7444 15.3518 16.4757 15.6972 16.4757C15.8724 16.4757 16.001 16.5448 16.0863 16.6549V16.5065H16.3541ZM13.8441 17.1176C13.8441 17.4884 14.1043 17.7594 14.5013 17.7594C14.6869 17.7594 14.8105 17.7185 14.9444 17.6137L14.8158 17.3989C14.7152 17.4706 14.6096 17.5089 14.4934 17.5089C14.2795 17.5063 14.1223 17.3529 14.1223 17.1176C14.1223 16.8823 14.2795 16.7289 14.4934 16.7263C14.6096 16.7263 14.7152 16.7646 14.8158 16.8363L14.9444 16.6215C14.8105 16.5167 14.6869 16.4757 14.5013 16.4757C14.1043 16.4757 13.8441 16.7468 13.8441 17.1176ZM16.9727 16.6549C17.0423 16.5474 17.1429 16.4757 17.2975 16.4757C17.3517 16.4757 17.429 16.486 17.4883 16.5091L17.4057 16.7596C17.3491 16.7365 17.2924 16.7289 17.2382 16.7289C17.063 16.7289 16.9754 16.8413 16.9754 17.0435V17.7287H16.7072V16.5065H16.9727V16.6549ZM10.1173 16.6036C9.98837 16.5193 9.81082 16.4757 9.61493 16.4757C9.30284 16.4757 9.10195 16.6241 9.10195 16.867C9.10195 17.0664 9.25153 17.1893 9.52704 17.2276L9.65357 17.2455C9.80047 17.266 9.86982 17.3043 9.86982 17.3734C9.86982 17.4679 9.77188 17.5217 9.58898 17.5217C9.40344 17.5217 9.26953 17.4629 9.17924 17.3938L9.053 17.6008C9.19989 17.7082 9.38544 17.7594 9.58633 17.7594C9.94207 17.7594 10.1483 17.5932 10.1483 17.3605C10.1483 17.1457 9.98602 17.0333 9.71788 16.9949L9.59163 16.9768C9.47573 16.9616 9.38279 16.9388 9.38279 16.8568C9.38279 16.7672 9.47039 16.7137 9.61728 16.7137C9.77453 16.7137 9.92672 16.7725 10.0014 16.8185L10.1173 16.6036ZM13.2489 16.6549C13.3182 16.5474 13.4188 16.4757 13.5733 16.4757C13.6276 16.4757 13.7049 16.486 13.7642 16.5091L13.6816 16.7596C13.625 16.7365 13.5683 16.7289 13.514 16.7289C13.3388 16.7289 13.2512 16.8413 13.2512 17.0435V17.7287H12.9834V16.5065H13.2489V16.6549ZM11.2875 16.5065H10.8494V16.1356H10.5786V16.5065H10.3288V16.7494H10.5786V17.3069C10.5786 17.5906 10.6895 17.7594 11.0064 17.7594C11.1226 17.7594 11.2565 17.7237 11.3415 17.6649L11.2642 17.4372C11.1842 17.4831 11.0966 17.5063 11.027 17.5063C10.8931 17.5063 10.8494 17.4243 10.8494 17.3017V16.7494H11.2875V16.5065ZM7.2825 16.9616V17.7287H7.01171V17.0485C7.01171 16.8413 6.92411 16.7263 6.74122 16.7263C6.56333 16.7263 6.43973 16.839 6.43973 17.0511V17.7287H6.16894V17.0485C6.16894 16.8413 6.07898 16.7263 5.90109 16.7263C5.71791 16.7263 5.59935 16.839 5.59935 17.0511V17.7287H5.32886V16.5065H5.597V16.6572C5.69759 16.5141 5.8262 16.4757 5.95774 16.4757C6.14593 16.4757 6.27988 16.5577 6.36483 16.6932C6.47837 16.5217 6.64062 16.4731 6.79786 16.4757C7.09695 16.4784 7.2825 16.6727 7.2825 16.9616Z" fill="#231F20" stroke="#414141" stroke-width="2.88" mask="url(#path-2-inside-1_5102_2987)"/>
<path d="M14.0881 14.4296H10.0286V7.19104H14.0881V14.4296Z" fill="#FF5F00"/>
<path d="M10.2862 10.8105C10.2862 9.3421 10.9791 8.0341 12.0582 7.19119C11.2691 6.57481 10.2732 6.20691 9.19096 6.20691C6.62875 6.20691 4.55176 8.26798 4.55176 10.8105C4.55176 13.353 6.62875 15.4141 9.19096 15.4141C10.2732 15.4141 11.2691 15.0462 12.0582 14.4298C10.9791 13.5869 10.2862 12.2789 10.2862 10.8105Z" fill="#EB001B"/>
<path d="M19.5648 10.8105C19.5648 13.353 17.4879 15.4141 14.9257 15.4141C13.8433 15.4141 12.8475 15.0462 12.0581 14.4298C13.1374 13.5869 13.8304 12.2789 13.8304 10.8105C13.8304 9.3421 13.1374 8.0341 12.0581 7.19119C12.8475 6.57481 13.8433 6.20691 14.9257 6.20691C17.4879 6.20691 19.5648 8.26798 19.5648 10.8105Z" fill="#F79E1B"/>
</g>
<defs>
<clipPath id="clip0_5102_2987">
<rect width="24" height="24" fill="white"/>
</clipPath>
</defs>
</svg>
