<svg width="22" height="20" viewBox="0 0 22 20" fill="none" xmlns="http://www.w3.org/2000/svg">
<path d="M0.75 5.75C0.75 7.09178 8.85617 10.75 10.75 10.75C12.6438 10.75 20.75 7.09178 20.75 5.75C20.75 4.40822 12.6438 0.75 10.75 0.75C8.85617 0.75 0.75 4.40822 0.75 5.75Z" stroke="#141B34" stroke-width="1.5" stroke-linecap="round" stroke-linejoin="round"/>
<path d="M4.75 8.75L4.99545 14.3799C5.00036 14.4926 5.01256 14.6055 5.04528 14.7135C5.14639 15.0473 5.33275 15.3506 5.61707 15.5544C7.84162 17.1485 13.6584 17.1485 15.8829 15.5544C16.1673 15.3506 16.3536 15.0473 16.4547 14.7135C16.4874 14.6055 16.4996 14.4926 16.5046 14.3799L16.75 8.75" stroke="#141B34" stroke-width="1.5" stroke-linecap="round" stroke-linejoin="round"/>
<path d="M20 7.25C20 6.83579 19.6642 6.5 19.25 6.5C18.8358 6.5 18.5 6.83579 18.5 7.25H20ZM17.8214 17.5134L18.5511 17.6868L17.8214 17.5134ZM20.6786 17.5134L21.4083 17.3401L20.6786 17.5134ZM19.25 7.25H18.5V14.2572H19.25H20V7.25H19.25ZM17.8214 17.5134L18.5511 17.6868C18.696 17.077 18.9452 16.5197 19.2119 15.9978C19.4562 15.5196 19.7763 14.9664 19.9476 14.5327L19.25 14.2572L18.5524 13.9817C18.4155 14.3284 18.1864 14.7081 17.8761 15.3153C17.5882 15.8788 17.2772 16.5595 17.0917 17.3401L17.8214 17.5134ZM20.6786 17.5134L21.4083 17.3401C21.2228 16.5595 20.9118 15.8788 20.6239 15.3153C20.3136 14.7081 20.0845 14.3284 19.9476 13.9817L19.25 14.2572L18.5524 14.5327C18.7237 14.9664 19.0438 15.5196 19.2881 15.9978C19.5548 16.5197 19.804 17.077 19.9489 17.6868L20.6786 17.5134ZM19.5654 18.75V18H18.9346V18.75V19.5H19.5654V18.75ZM17.8214 17.5134L17.0917 17.3401C16.9684 17.8594 16.8943 18.5464 17.3835 19.037C17.6126 19.2668 17.8951 19.3747 18.1439 19.4299C18.3919 19.4849 18.664 19.5 18.9346 19.5V18.75V18C18.7063 18 18.5601 17.9858 18.4686 17.9655C18.378 17.9454 18.3999 17.9321 18.4457 17.978C18.5034 18.0358 18.5042 18.0898 18.5014 18.0595C18.497 18.0126 18.5004 17.9004 18.5511 17.6868L17.8214 17.5134ZM20.6786 17.5134L19.9489 17.6868C19.9996 17.9004 20.003 18.0126 19.9986 18.0595C19.9958 18.0898 19.9966 18.0358 20.0543 17.978C20.1001 17.9321 20.122 17.9454 20.0314 17.9655C19.9399 17.9858 19.7937 18 19.5654 18V18.75V19.5C19.836 19.5 20.1081 19.4849 20.3561 19.4299C20.6049 19.3747 20.8874 19.2668 21.1165 19.037C21.6057 18.5464 21.5316 17.8594 21.4083 17.3401L20.6786 17.5134Z" fill="#141B34"/>
</svg>
