<svg width="24" height="24" viewBox="0 0 24 24" fill="none" xmlns="http://www.w3.org/2000/svg">
<path d="M24 0H0V2.66H24V0Z" fill="#DC4437"/>
<path d="M24 5.33997H0V7.99997H24V5.33997Z" fill="#DC4437"/>
<path d="M24 16H0V18.66H24V16Z" fill="#DC4437"/>
<path d="M24 21.34H0V24H24V21.34Z" fill="#DC4437"/>
<path d="M24 10.66H0V13.32H24V10.66Z" fill="#DC4437"/>
<path d="M24 2.66003H0V5.32003H24V2.66003Z" fill="white"/>
<path d="M24 8H0V10.66H24V8Z" fill="white"/>
<path d="M24 18.66H0V21.32H24V18.66Z" fill="white"/>
<path d="M24 13.34H0V16H24V13.34Z" fill="white"/>
<path d="M12.9231 0H0V13.34H12.9231V0Z" fill="#2A66B7"/>
<path d="M2.49228 0.800049L2.9169 1.78005L3.8769 1.94005L3.17536 2.72005L3.34151 3.80005L2.49228 3.28005L1.64305 3.80005L1.8092 2.72005L1.10767 1.94005L2.06767 1.78005L2.49228 0.800049Z" fill="white"/>
<path d="M6.27695 0.800049L6.70156 1.78005L7.66156 1.94005L6.97849 2.72005L7.12618 3.80005L6.27695 3.28005L5.42772 3.80005L5.57541 2.72005L4.89233 1.94005L5.85233 1.78005L6.27695 0.800049Z" fill="white"/>
<path d="M10.0616 0.800049L10.4862 1.78005L11.4462 1.94005L10.7447 2.72005L10.9108 3.80005L10.0616 3.28005L9.21239 3.80005L9.37854 2.72005L8.677 1.94005L9.637 1.78005L10.0616 0.800049Z" fill="white"/>
<path d="M4.43076 4.80005L4.85537 5.78005L5.81537 5.94005L5.1323 6.72005L5.27999 7.80005L4.43076 7.28005L3.58153 7.80005L3.72922 6.72005L3.04614 5.94005L4.00614 5.78005L4.43076 4.80005Z" fill="white"/>
<path d="M8.21543 4.80005L8.64004 5.78005L9.60004 5.94005L8.8985 6.72005L9.06466 7.80005L8.21543 7.28005L7.3662 7.80005L7.53235 6.72005L6.83081 5.94005L7.79081 5.78005L8.21543 4.80005Z" fill="white"/>
<path d="M2.49228 9.04004L2.9169 10.02L3.8769 10.18L3.17536 10.94L3.34151 12.04L2.49228 11.52L1.64305 12.04L1.8092 10.94L1.10767 10.18L2.06767 10.02L2.49228 9.04004Z" fill="white"/>
<path d="M6.27695 9.04004L6.70156 10.02L7.66156 10.18L6.97849 10.94L7.12618 12.04L6.27695 11.52L5.42772 12.04L5.57541 10.94L4.89233 10.18L5.85233 10.02L6.27695 9.04004Z" fill="white"/>
<path d="M10.0616 9.04004L10.4862 10.02L11.4462 10.18L10.7447 10.94L10.9108 12.04L10.0616 11.52L9.21239 12.04L9.37854 10.94L8.677 10.18L9.637 10.02L10.0616 9.04004Z" fill="white"/>
</svg>
