<svg width="18" height="18" viewBox="0 0 18 18" fill="none" xmlns="http://www.w3.org/2000/svg">
<path d="M0.75 3.75C0.75 2.33579 0.75 1.62868 1.18934 1.18934C1.62868 0.75 2.33579 0.75 3.75 0.75C5.16421 0.75 5.87132 0.75 6.31066 1.18934C6.75 1.62868 6.75 2.33579 6.75 3.75V13.75C6.75 15.1642 6.75 15.8713 6.31066 16.3107C5.87132 16.75 5.16421 16.75 3.75 16.75C2.33579 16.75 1.62868 16.75 1.18934 16.3107C0.75 15.8713 0.75 15.1642 0.75 13.75V3.75Z" stroke="#141B34" stroke-width="1.5"/>
<path d="M10.75 3.75C10.75 2.33579 10.75 1.62868 11.1893 1.18934C11.6287 0.75 12.3358 0.75 13.75 0.75C15.1642 0.75 15.8713 0.75 16.3107 1.18934C16.75 1.62868 16.75 2.33579 16.75 3.75V13.75C16.75 15.1642 16.75 15.8713 16.3107 16.3107C15.8713 16.75 15.1642 16.75 13.75 16.75C12.3358 16.75 11.6287 16.75 11.1893 16.3107C10.75 15.8713 10.75 15.1642 10.75 13.75V3.75Z" stroke="#141B34" stroke-width="1.5"/>
</svg>
