<svg width="21" height="24" viewBox="0 0 21 24" fill="none" xmlns="http://www.w3.org/2000/svg">
<path d="M20.5719 5.52283V23.9998H0.526123V-0.00012207H15.049L17.6214 2.57233L20.5719 5.52283Z" fill="#EE504C"/>
<path d="M9.61392 1.60748H0V5.90911H9.61392V1.60748Z" fill="#F2F2F2"/>
<path d="M3.44857 3.01751C3.40615 2.91504 3.34962 2.82316 3.2719 2.74544C3.19418 2.66772 3.09874 2.60411 2.9892 2.56169C2.87613 2.51576 2.74892 2.49457 2.60759 2.49457H1.55103V5.22246H2.0846V4.19416H2.60759C2.74892 4.19416 2.87613 4.17297 2.9892 4.12704C3.09874 4.08462 3.19413 4.02105 3.2719 3.94329C3.34967 3.86557 3.4062 3.77721 3.44857 3.67122C3.48743 3.56876 3.50867 3.45921 3.50867 3.34615C3.50862 3.22952 3.48743 3.11997 3.44857 3.01751ZM2.87257 3.61465C2.80188 3.68177 2.70298 3.71711 2.58284 3.71711H2.0846V2.96801H2.58284C2.70298 2.96801 2.80193 3.00335 2.87257 3.07399C2.9397 3.14111 2.97504 3.23299 2.97504 3.34605C2.97509 3.45565 2.93974 3.54752 2.87257 3.61465Z" fill="#EE504C"/>
<path d="M5.99968 3.55096C5.99616 3.45557 5.9926 3.37077 5.98201 3.29301C5.97141 3.21524 5.95374 3.1446 5.92899 3.07748C5.90424 3.01387 5.87246 2.95026 5.83004 2.89373C5.73465 2.75591 5.61802 2.65345 5.48729 2.58984C5.35299 2.52623 5.19399 2.49445 5.00673 2.49445H4.02441V5.22234H5.00673C5.19399 5.22234 5.35299 5.19056 5.48729 5.12695C5.61802 5.06334 5.73465 4.96087 5.83004 4.82306C5.87246 4.76652 5.90424 4.70291 5.92899 4.63931C5.95374 4.57218 5.97141 4.50149 5.98201 4.42377C5.9926 4.34606 5.99612 4.26121 5.99968 4.16582C6.0032 4.07395 6.0032 3.97148 6.0032 3.85841C6.0032 3.74535 6.0032 3.64284 5.99968 3.55096ZM5.4661 4.13404C5.4661 4.21532 5.45902 4.27893 5.45195 4.33546C5.44487 4.38848 5.43427 4.43793 5.42016 4.47327C5.40606 4.51213 5.38482 4.54748 5.36012 4.57926C5.27176 4.69232 5.13751 4.74534 4.96084 4.74534H4.55448V2.96793H4.96084C5.13751 2.96793 5.2718 3.02446 5.36012 3.13752C5.38487 3.16931 5.40606 3.20113 5.42016 3.23999C5.43427 3.27885 5.44491 3.32479 5.45195 3.38132C5.45902 3.43434 5.4661 3.50146 5.4661 3.57918C5.46962 3.65695 5.46962 3.75234 5.46962 3.85832C5.46966 3.9644 5.46966 4.05627 5.4661 4.13404Z" fill="#EE504C"/>
<path d="M8.27906 2.96793V2.49445H6.48047V5.22234H7.01405V4.11637H8.0918V3.63932H7.01405V2.96793H8.27906Z" fill="#EE504C"/>
<path d="M3.44857 3.01751C3.40615 2.91504 3.34962 2.82316 3.2719 2.74544C3.19418 2.66772 3.09874 2.60411 2.9892 2.56169C2.87613 2.51576 2.74892 2.49457 2.60759 2.49457H1.55103V5.22246H2.0846V4.19416H2.60759C2.74892 4.19416 2.87613 4.17297 2.9892 4.12704C3.09874 4.08462 3.19413 4.02105 3.2719 3.94329C3.34967 3.86557 3.4062 3.77721 3.44857 3.67122C3.48743 3.56876 3.50867 3.45921 3.50867 3.34615C3.50862 3.22952 3.48743 3.11997 3.44857 3.01751ZM2.87257 3.61465C2.80188 3.68177 2.70298 3.71711 2.58284 3.71711H2.0846V2.96801H2.58284C2.70298 2.96801 2.80193 3.00335 2.87257 3.07399C2.9397 3.14111 2.97504 3.23299 2.97504 3.34605C2.97509 3.45565 2.93974 3.54752 2.87257 3.61465Z" fill="#EE504C"/>
<path opacity="0.08" d="M20.5719 5.52289V23.9998H0.526123V19.6677L9.89709 10.2967L10.4519 9.74197L10.7593 9.43451L11.2717 8.92217L11.8794 8.31439L17.6214 2.57239L20.5719 5.52289Z" fill="#040000"/>
<path d="M20.5719 5.52344H15.0483V-0.00012207L20.5719 5.52344Z" fill="#771B1B"/>
<path d="M17.7099 17.3743C17.5933 17.1694 17.4343 16.9751 17.2364 16.7984C17.0739 16.65 16.8831 16.5122 16.6675 16.3849C15.7982 15.8726 14.558 15.6252 12.8724 15.6252H12.7028C12.611 15.5404 12.5156 15.4556 12.4166 15.3673C11.7771 14.7913 11.2682 14.1659 10.8725 13.4698C11.6498 11.756 12.0209 10.2295 11.9749 8.92915C11.9678 8.71005 11.9361 8.50511 11.8795 8.31429C11.7947 8.00688 11.6534 7.73477 11.4555 7.51216C11.452 7.50865 11.452 7.50865 11.4484 7.50508C11.1339 7.15174 10.6958 6.95032 10.2505 6.95032C9.80174 6.95032 9.38835 7.14466 9.08798 7.50157C8.79117 7.85491 8.63217 8.33904 8.62509 8.90791C8.61449 9.77716 8.68513 10.6005 8.83359 11.3602C8.8477 11.4203 8.85834 11.4803 8.87245 11.5404C9.02085 12.2294 9.23995 12.8831 9.5226 13.4909C9.19045 14.1658 8.85477 14.7488 8.62152 15.1446C8.44485 15.445 8.25051 15.7594 8.04909 16.0739C7.14098 16.2365 6.37063 16.4343 5.69929 16.6817C4.79118 17.0103 4.06326 17.4343 3.54027 17.9396C3.20104 18.2647 2.97135 18.611 2.85829 18.9715C2.73815 19.3425 2.74523 19.7135 2.87948 20.0456C3.00313 20.3531 3.22574 20.611 3.5226 20.7877C3.59329 20.8301 3.66749 20.8654 3.74521 20.8972C3.97138 20.9891 4.2187 21.0386 4.47665 21.0386C5.07384 21.0386 5.68865 20.7806 6.20807 20.3177C7.17627 19.452 8.17626 18.0598 8.76637 17.1799C9.25045 17.1057 9.77695 17.0421 10.3706 16.9785C11.0703 16.9078 11.6887 16.8654 12.2505 16.8442C12.4236 16.9997 12.5897 17.1481 12.7487 17.2894C13.6321 18.0774 14.3035 18.6463 14.9113 19.0456C14.9113 19.0491 14.9148 19.0491 14.9183 19.0491C15.1586 19.2081 15.3883 19.3388 15.618 19.4448C15.8759 19.565 16.1374 19.6286 16.406 19.6286C16.7452 19.6286 17.0632 19.5261 17.3282 19.3389C17.5968 19.1445 17.7911 18.8654 17.8795 18.5509C17.9819 18.1729 17.9219 17.7524 17.7099 17.3743ZM9.89718 10.2966C9.84773 9.85844 9.82649 9.40263 9.83357 8.92207C9.84065 8.46625 10.0067 8.1588 10.2505 8.1588C10.4343 8.1588 10.6286 8.32488 10.7169 8.64288C10.7417 8.73827 10.7594 8.84782 10.7629 8.97147C10.7699 9.11988 10.7664 9.27536 10.7594 9.43436C10.7382 9.88315 10.6604 10.3601 10.5261 10.8725C10.4449 11.2012 10.3389 11.5439 10.2081 11.9008C10.0597 11.3991 9.95371 10.8655 9.89718 10.2966ZM4.00321 19.5969C3.94312 19.4485 4.01029 19.1623 4.37779 18.8089C4.93963 18.2718 5.81948 17.8478 7.04563 17.5263C6.81243 17.8443 6.58274 18.134 6.36013 18.399C6.0209 18.8089 5.69582 19.1552 5.40252 19.4167C5.15165 19.6428 4.87602 19.7842 4.61456 19.8195C4.56862 19.8266 4.52268 19.8301 4.47674 19.8301C4.24701 19.8302 4.05974 19.7383 4.00321 19.5969ZM9.64982 15.8408L9.67457 15.8019L9.63571 15.809C9.64279 15.7913 9.65338 15.7736 9.66398 15.7595C9.81238 15.5087 9.99965 15.1871 10.2011 14.8161L10.2187 14.8549L10.2647 14.7596C10.4131 14.9716 10.5756 15.1801 10.7452 15.3814C10.8265 15.4768 10.9113 15.5687 10.9961 15.6606L10.9396 15.6641L10.989 15.71C10.8441 15.7206 10.6922 15.7348 10.5403 15.7489C10.4449 15.7595 10.3459 15.7666 10.247 15.7772C10.0421 15.7983 9.84065 15.8196 9.64982 15.8408ZM15.5968 18.0457C15.1763 17.7771 14.7064 17.399 14.1269 16.8937C14.9502 16.9785 15.5968 17.1588 16.0562 17.4273C16.2576 17.5439 16.4095 17.6641 16.512 17.7806C16.6816 17.9608 16.7417 18.1234 16.7099 18.2329C16.6816 18.3425 16.5579 18.4167 16.406 18.4167C16.3176 18.4167 16.2258 18.3955 16.1303 18.3496C15.9678 18.2718 15.7982 18.1764 15.618 18.0598C15.6109 18.0598 15.6039 18.0528 15.5968 18.0457Z" fill="#F2F2F2"/>
</svg>
