<svg width="22" height="18" viewBox="0 0 22 18" fill="none" xmlns="http://www.w3.org/2000/svg">
<path d="M11.25 16.75H9.25C5.49142 16.75 3.61213 16.75 2.35746 15.7591C2.15678 15.6006 1.97119 15.426 1.8028 15.2371C0.75 14.0562 0.75 12.2875 0.75 8.75C0.75 5.21252 0.75 3.44377 1.8028 2.2629C1.97119 2.07403 2.15678 1.89935 2.35746 1.74087C3.61213 0.75 5.49142 0.75 9.25 0.75H12.25C16.0086 0.75 17.8879 0.75 19.1425 1.74087C19.3432 1.89935 19.5288 2.07403 19.6972 2.2629C20.5894 3.26358 20.7255 4.68642 20.7463 7.25" stroke="#141B34" stroke-width="1.5" stroke-linecap="round" stroke-linejoin="round"/>
<path d="M17.25 16.75L17.25 9.75M13.75 13.25H20.75" stroke="#141B34" stroke-width="1.5" stroke-linecap="round"/>
<path d="M0.75 5.75H20.75" stroke="#141B34" stroke-width="1.5" stroke-linejoin="round"/>
</svg>
