<svg width="12" height="4" viewBox="0 0 12 4" fill="none" xmlns="http://www.w3.org/2000/svg">
<path d="M4.51975 1.66871V3.8611H3.63428V0.0270996H4.3255L6.11289 2.27888V0.0270996H6.99854V3.8611H6.28567L4.51975 1.66871Z" fill="#F8F8F9"/>
<path d="M0 3.8611V0.0270996H1.63613C2.34347 0.0270996 2.88891 0.6811 2.88891 1.32315C2.88891 2.06115 2.33597 2.62454 1.66312 2.62454H0.885562V3.8611H0ZM0.88561 1.85232H1.60922C1.84477 1.85232 1.99261 1.6224 1.99261 1.32319C1.99261 1.0149 1.82977 0.804803 1.57683 0.804803H0.885562V1.85237L0.88561 1.85232Z" fill="#F8F8F9"/>
<path d="M10.6378 3.48306C10.3462 3.75306 10.0095 3.88806 9.62801 3.88806C8.57304 3.88806 7.78662 3.02106 7.78662 1.91701C7.78662 0.801014 8.67434 6.10352e-05 9.69823 6.10352e-05C10.4525 6.10352e-05 10.9637 0.33414 11.2319 0.837015L10.5731 1.3338C10.3656 0.958514 10.0356 0.788404 9.66589 0.788404C9.12059 0.788404 8.68311 1.27351 8.68311 1.94945C8.68311 2.59351 9.09814 3.09967 9.70367 3.09967C10.0494 3.09967 10.3607 2.93945 10.6379 2.61901V2.50028H9.89267V1.85762H11.3723V3.86106H10.6378V3.48306H10.6378Z" fill="#F8F8F9"/>
</svg>
