<svg width="5" height="20" viewBox="0 0 5 20" fill="none" xmlns="http://www.w3.org/2000/svg">
<path d="M3.75 2.25C3.75 1.42157 3.07843 0.75 2.25 0.75C1.42157 0.75 0.75 1.42157 0.75 2.25C0.75 3.07843 1.42157 3.75 2.25 3.75C3.07843 3.75 3.75 3.07843 3.75 2.25Z" stroke="#141B34" stroke-width="1.5"/>
<path d="M3.75 9.75C3.75 8.92157 3.07843 8.25 2.25 8.25C1.42157 8.25 0.75 8.92157 0.75 9.75C0.75 10.5784 1.42157 11.25 2.25 11.25C3.07843 11.25 3.75 10.5784 3.75 9.75Z" stroke="#141B34" stroke-width="1.5"/>
<path d="M3.75 17.25C3.75 16.4216 3.07843 15.75 2.25 15.75C1.42157 15.75 0.75 16.4216 0.75 17.25C0.75 18.0784 1.42157 18.75 2.25 18.75C3.07843 18.75 3.75 18.0784 3.75 17.25Z" stroke="#141B34" stroke-width="1.5"/>
</svg>
