<svg width="19" height="22" viewBox="0 0 19 22" fill="none" xmlns="http://www.w3.org/2000/svg">
<path d="M4.75 3.75H13.25C14.0784 3.75 14.75 4.42157 14.75 5.25V6.75" stroke="#25272C" stroke-width="1.5" stroke-linecap="round" stroke-linejoin="round"/>
<path d="M16.5784 19.5784L16.0481 19.0481L16.0481 19.0481L16.5784 19.5784ZM15.75 1.5C16.1642 1.5 16.5 1.16421 16.5 0.75C16.5 0.335786 16.1642 0 15.75 0V1.5ZM17.75 8.75H17V12.75H17.75H18.5V8.75H17.75ZM9.75 20.75V20H8.75V20.75V21.5H9.75V20.75ZM0.75 12.75H1.5V3.75H0.75H0V12.75H0.75ZM8.75 20.75V20C6.84318 20 5.48851 19.9984 4.46085 19.8602C3.45476 19.725 2.87511 19.4713 2.4519 19.0481L1.92157 19.5784L1.39124 20.1088C2.13961 20.8571 3.08855 21.1892 4.26098 21.3469C5.41182 21.5016 6.88558 21.5 8.75 21.5V20.75ZM0.75 12.75H0C0 14.6144 -0.00159281 16.0882 0.153135 17.239C0.310763 18.4114 0.64288 19.3604 1.39124 20.1088L1.92157 19.5784L2.4519 19.0481C2.02869 18.6249 1.77502 18.0452 1.63976 17.0392C1.50159 16.0115 1.5 14.6568 1.5 12.75H0.75ZM17.75 12.75H17C17 14.6568 16.9984 16.0115 16.8602 17.0392C16.725 18.0452 16.4713 18.6249 16.0481 19.0481L16.5784 19.5784L17.1088 20.1088C17.8571 19.3604 18.1892 18.4114 18.3469 17.239C18.5016 16.0882 18.5 14.6144 18.5 12.75H17.75ZM9.75 20.75V21.5C11.6144 21.5 13.0882 21.5016 14.239 21.3469C15.4114 21.1892 16.3604 20.8571 17.1088 20.1088L16.5784 19.5784L16.0481 19.0481C15.6249 19.4713 15.0452 19.725 14.0392 19.8602C13.0115 19.9984 11.6568 20 9.75 20V20.75ZM15.75 0.75V0H3.75V0.75V1.5H15.75V0.75ZM3.75 6.75V7.5H15.75V6.75V6H3.75V6.75ZM0.75 3.75H0C0 5.82107 1.67893 7.5 3.75 7.5V6.75V6C2.50736 6 1.5 4.99264 1.5 3.75H0.75ZM3.75 0.75V0C1.67893 0 0 1.67893 0 3.75H0.75H1.5C1.5 2.50736 2.50736 1.5 3.75 1.5V0.75ZM17.75 8.75H18.5C18.5 7.23122 17.2688 6 15.75 6V6.75V7.5C16.4404 7.5 17 8.05964 17 8.75H17.75Z" fill="#25272C"/>
<path d="M12.25 11.75L6.25 11.75" stroke="#25272C" stroke-width="1.5" stroke-linecap="round" stroke-linejoin="round"/>
<path d="M9.25 15.75L6.25 15.75" stroke="#25272C" stroke-width="1.5" stroke-linecap="round" stroke-linejoin="round"/>
</svg>
