<svg width="22" height="22" viewBox="0 0 22 22" fill="none" xmlns="http://www.w3.org/2000/svg">
<path d="M5.74976 4.75055C4.52912 4.75421 3.85358 4.78341 3.29849 5.0164C2.52096 5.34275 1.88777 5.94558 1.51786 6.71165C1.21594 7.33693 1.16653 8.13805 1.06771 9.74029L0.912871 12.251C0.667141 16.2354 0.544276 18.2276 1.71344 19.4888C2.88261 20.75 4.85228 20.75 8.79163 20.75H12.7079C16.6472 20.75 18.6169 20.75 19.7861 19.4888C20.9552 18.2276 20.8324 16.2354 20.5866 12.251L20.4318 9.74029C20.333 8.13805 20.2836 7.33693 19.9817 6.71165C19.6117 5.94558 18.9786 5.34275 18.201 5.0164C17.6459 4.78341 16.9704 4.75421 15.7498 4.75055" stroke="#141B34" stroke-width="1.5" stroke-linecap="round"/>
<path d="M15.7495 5.75L14.8637 3.53543C14.4815 2.57996 14.1489 1.4961 13.1662 1.00955C12.6419 0.75 12.0111 0.75 10.7495 0.75C9.48791 0.75 8.85711 0.75 8.33287 1.00955C7.35012 1.4961 7.01753 2.57996 6.63534 3.53543L5.74951 5.75" stroke="#141B34" stroke-width="1.5" stroke-linecap="round" stroke-linejoin="round"/>
<path d="M14.2495 12.75C14.2495 14.683 12.6825 16.25 10.7495 16.25C8.81651 16.25 7.24951 14.683 7.24951 12.75C7.24951 10.817 8.81651 9.25 10.7495 9.25C12.6825 9.25 14.2495 10.817 14.2495 12.75Z" stroke="#141B34" stroke-width="1.5"/>
<path d="M10.7493 4.75H10.7583" stroke="#141B34" stroke-width="2" stroke-linecap="round" stroke-linejoin="round"/>
</svg>
