<svg width="21" height="21" viewBox="0 0 21 21" fill="none" xmlns="http://www.w3.org/2000/svg">
<path fill-rule="evenodd" clip-rule="evenodd" d="M10.1928 2.35085e-07H10.3072C12.4979 -1.33548e-05 14.2186 -2.39611e-05 15.562 0.180594C16.9386 0.36568 18.0309 0.752715 18.8891 1.61091C19.7473 2.46911 20.1343 3.56137 20.3194 4.93802C20.5 6.28144 20.5 8.00212 20.5 10.1928V10.3072C20.5 12.4979 20.5 14.2186 20.3194 15.562C20.1343 16.9386 19.7473 18.0309 18.8891 18.8891C18.0309 19.7473 16.9386 20.1343 15.562 20.3194C14.2186 20.5 12.4979 20.5 10.3072 20.5H10.1928C8.00212 20.5 6.28144 20.5 4.93802 20.3194C3.56137 20.1343 2.46911 19.7473 1.61091 18.8891C0.752715 18.0309 0.36568 16.9386 0.180594 15.562C-2.39611e-05 14.2186 -1.33548e-05 12.4979 2.35085e-07 10.3072V10.1928C-1.33548e-05 8.00212 -2.39611e-05 6.28144 0.180594 4.93802C0.365681 3.56137 0.752715 2.46911 1.61091 1.61091C2.46911 0.752715 3.56137 0.365681 4.93802 0.180594C6.28144 -2.39611e-05 8.00212 -1.33548e-05 10.1928 2.35085e-07Z" fill="#141B34"/>
</svg>
