<svg width="21" height="21" viewBox="0 0 21 21" fill="none" xmlns="http://www.w3.org/2000/svg">
<path d="M0.75 10.25C0.75 5.77166 0.75 3.53249 2.14124 2.14124C3.53249 0.75 5.77166 0.75 10.25 0.75C14.7283 0.75 16.9675 0.75 18.3588 2.14124C19.75 3.53249 19.75 5.77166 19.75 10.25C19.75 14.7283 19.75 16.9675 18.3588 18.3588C16.9675 19.75 14.7283 19.75 10.25 19.75C5.77166 19.75 3.53249 19.75 2.14124 18.3588C0.75 16.9675 0.75 14.7283 0.75 10.25Z" stroke="#141B34" stroke-width="1.5"/>
<circle cx="14.75" cy="5.75" r="1.5" stroke="#141B34" stroke-width="1.5"/>
<path d="M14.25 20.25C13.6305 18.0249 12.1845 16.0321 10.1265 14.5842C7.90761 13.0229 5.12163 12.1966 2.26569 12.2527C1.92658 12.2519 1.58776 12.2627 1.25 12.2851" stroke="#141B34" stroke-width="1.5" stroke-linejoin="round"/>
<path d="M11.25 16.25C12.9515 14.9233 14.7845 14.2428 16.6362 14.2501C17.6862 14.249 18.7312 14.4716 19.75 14.9117" stroke="#141B34" stroke-width="1.5" stroke-linejoin="round"/>
</svg>
