<svg width="22" height="22" viewBox="0 0 22 22" fill="none" xmlns="http://www.w3.org/2000/svg">
<path d="M8.75 16.75L12.75 16.75" stroke="#141B34" stroke-width="1.5" stroke-linecap="round" stroke-linejoin="round"/>
<path d="M1.10139 11.9635C0.748371 9.66624 0.571861 8.51763 1.00617 7.49938C1.44047 6.48112 2.40403 5.78443 4.33114 4.39106L5.77099 3.35C8.16829 1.61667 9.36694 0.75 10.75 0.75C12.1331 0.75 13.3317 1.61667 15.729 3.35L17.1689 4.39106C19.096 5.78443 20.0595 6.48112 20.4938 7.49938C20.9281 8.51763 20.7516 9.66624 20.3986 11.9635L20.0976 13.9224C19.5971 17.1789 19.3469 18.8072 18.179 19.7786C17.0111 20.75 15.3037 20.75 11.8888 20.75H9.61119C6.19633 20.75 4.48891 20.75 3.321 19.7786C2.15309 18.8072 1.90287 17.1789 1.40243 13.9224L1.10139 11.9635Z" stroke="#141B34" stroke-width="1.5" stroke-linejoin="round"/>
</svg>
