<svg width="22" height="19" viewBox="0 0 22 19" fill="none" xmlns="http://www.w3.org/2000/svg">
<path d="M0.75 8.75C0.75 9.85457 1.64543 10.75 2.75 10.75C4.40685 10.75 5.75 9.40685 5.75 7.75V3.75C5.75 2.09315 4.40685 0.75 2.75 0.75C1.64543 0.75 0.75 1.64543 0.75 2.75V8.75Z" stroke="#141B34" stroke-width="1.5" stroke-linecap="round" stroke-linejoin="round"/>
<path d="M14.2287 13.4437L13.9624 12.5837C13.7442 11.8789 13.6351 11.5265 13.719 11.2482C13.7869 11.0231 13.9359 10.829 14.139 10.7013C14.39 10.5435 14.7697 10.5435 15.5291 10.5435H15.9331C18.5032 10.5435 19.7882 10.5435 20.3952 9.7827C20.4645 9.69575 20.5262 9.60331 20.5796 9.50633C21.0465 8.65785 20.5157 7.51487 19.454 5.2289C18.4797 3.13111 17.9925 2.08222 17.088 1.46485C17.0005 1.40508 16.9105 1.3487 16.8183 1.29586C15.866 0.75 14.6862 0.75 12.3264 0.75H11.8146C8.95572 0.75 7.52628 0.75 6.63814 1.61053C5.75 2.47106 5.75 3.85607 5.75 6.62607V7.59966C5.75 9.05536 5.75 9.78322 6.00834 10.4494C6.26668 11.1156 6.76135 11.6634 7.75069 12.7589L11.8421 17.2894C11.9447 17.4031 11.996 17.4599 12.0413 17.4993C12.4635 17.8667 13.1152 17.8254 13.4844 17.4077C13.524 17.3629 13.5672 17.3001 13.6536 17.1745C13.7888 16.978 13.8564 16.8797 13.9154 16.7823C14.4428 15.9109 14.6024 14.8756 14.3608 13.8929C14.3338 13.7831 14.2988 13.6699 14.2287 13.4437Z" stroke="#141B34" stroke-width="1.5" stroke-linecap="round" stroke-linejoin="round"/>
</svg>
