<svg width="22" height="21" viewBox="0 0 22 21" fill="none" xmlns="http://www.w3.org/2000/svg">
<path d="M14.25 10.0609C14.25 11.9938 12.683 13.5609 10.75 13.5609C8.817 13.5609 7.25 11.9938 7.25 10.0609C7.25 8.12786 8.817 6.56085 10.75 6.56085C12.683 6.56085 14.25 8.12786 14.25 10.0609Z" stroke="#141B34" stroke-width="1.5"/>
<path d="M19.761 12.1574C20.2829 12.0166 20.5439 11.9462 20.6469 11.8117C20.75 11.6771 20.75 11.4606 20.75 11.0277V9.09409C20.75 8.66115 20.75 8.44467 20.6469 8.31012C20.5438 8.17556 20.2829 8.10518 19.761 7.96443C17.8106 7.43844 16.5899 5.39937 17.0933 3.46172C17.2317 2.92885 17.3009 2.66241 17.2348 2.50614C17.1687 2.34987 16.9791 2.24219 16.5997 2.02681L14.875 1.04758C14.5028 0.83624 14.3167 0.730569 14.1497 0.753072C13.9826 0.775575 13.7942 0.963579 13.4172 1.33959C11.958 2.79534 9.54358 2.79528 8.08434 1.33949C7.70743 0.963485 7.51898 0.77548 7.35193 0.752975C7.18489 0.730471 6.99877 0.836143 6.62653 1.04749L4.90184 2.02672C4.52253 2.24208 4.33287 2.34976 4.26678 2.50601C4.20068 2.66225 4.26987 2.92872 4.40825 3.46165C4.91137 5.39935 3.68972 7.43848 1.73902 7.96445C1.21712 8.10517 0.956169 8.17553 0.853085 8.31009C0.75 8.44465 0.75 8.66113 0.75 9.09409V11.0277C0.75 11.4607 0.75 11.6771 0.853077 11.8117C0.956154 11.9462 1.21711 12.0166 1.73902 12.1574C3.6894 12.6834 4.91008 14.7224 4.40672 16.6601C4.26829 17.193 4.19907 17.4594 4.26516 17.6157C4.33126 17.7719 4.52092 17.8796 4.90025 18.095L6.62495 19.0742C6.99721 19.2856 7.18334 19.3913 7.3504 19.3687C7.51746 19.3462 7.70588 19.1582 8.08271 18.7822C9.54274 17.3252 11.9588 17.3252 13.4189 18.7821C13.7957 19.1581 13.9841 19.3461 14.1512 19.3686C14.3182 19.3912 14.5044 19.2855 14.8766 19.0741L16.6013 18.0949C16.9807 17.8795 17.1704 17.7718 17.2364 17.6155C17.3025 17.4592 17.2333 17.1928 17.0948 16.66C16.5912 14.7224 17.8109 12.6834 19.761 12.1574Z" stroke="#141B34" stroke-width="1.5" stroke-linecap="round"/>
</svg>
