<svg width="24" height="24" viewBox="0 0 24 24" fill="none" xmlns="http://www.w3.org/2000/svg">
<path d="M22.2026 0H1.79742C0.804703 0 0 1.22822 0 2.74342V21.2565C0 22.7716 0.804703 23.9999 1.79742 23.9999H22.2026C23.1952 23.9999 24 22.7717 24 21.2565V2.74342C24 1.22822 23.1953 0 22.2026 0Z" fill="#41479B"/>
<path d="M23.9751 2.28996C23.8335 0.990763 23.094 0 22.2026 0H21.7349L14.069 7.6659V7.15063e-05H9.93103V7.66597L2.26509 7.15063e-05H1.79742C0.906 7.15063e-05 0.166547 0.990763 0.0248906 2.29003L6.57698 8.84218H0V15.1579H6.57698L0.0248906 21.7099C0.166547 23.0091 0.906 23.9999 1.79742 23.9999H2.26509L9.93103 16.334V23.9999H14.069V16.334L21.7349 23.9999H22.2026C23.094 23.9999 23.8335 23.0092 23.9751 21.7099L17.423 15.1578H24V8.84204H17.423L23.9751 2.28996Z" fill="#F5F5F5"/>
<path d="M13.2414 0H10.7586V10.1052H0V13.8947H10.7586V23.9998H13.2414V13.8947H24V10.1052H13.2414V0Z" fill="#FF4B55"/>
<path d="M1.16217 23.823L9.90825 15.1578H8.38819L0.432373 23.0402C0.627045 23.3869 0.877217 23.6587 1.16217 23.823Z" fill="#FF4B55"/>
<path d="M16.2369 15.1578H14.7168L23.1879 23.5505C23.4249 23.3129 23.6227 22.9919 23.7638 22.615L16.2369 15.1578Z" fill="#FF4B55"/>
<path d="M0.189697 1.51664L7.58329 8.84198H9.10335L0.725291 0.54126C0.500338 0.796821 0.31626 1.13094 0.189697 1.51664Z" fill="#FF4B55"/>
<path d="M15.5889 8.84217L23.5593 0.94532C23.3625 0.599684 23.1103 0.329527 22.8234 0.168335L14.0688 8.84217H15.5889Z" fill="#FF4B55"/>
</svg>
