<svg width="21" height="21" viewBox="0 0 21 21" fill="none" xmlns="http://www.w3.org/2000/svg">
<path d="M0.75 10.25C0.75 5.77166 0.75 3.53249 2.14124 2.14124C3.53249 0.75 5.77166 0.75 10.25 0.75C14.7283 0.75 16.9675 0.75 18.3588 2.14124C19.75 3.53249 19.75 5.77166 19.75 10.25C19.75 14.7283 19.75 16.9675 18.3588 18.3588C16.9675 19.75 14.7283 19.75 10.25 19.75C5.77166 19.75 3.53249 19.75 2.14124 18.3588C0.75 16.9675 0.75 14.7283 0.75 10.25Z" stroke="#141B34" stroke-width="1.5"/>
<path d="M10.25 6.25V14.25" stroke="#141B34" stroke-width="1.5" stroke-linecap="round" stroke-linejoin="round"/>
<path d="M7.25 8.25V12.25" stroke="#141B34" stroke-width="1.5" stroke-linecap="round" stroke-linejoin="round"/>
<path d="M4.25 9.25V11.25" stroke="#141B34" stroke-width="1.5" stroke-linecap="round" stroke-linejoin="round"/>
<path d="M13.25 8.25V12.25" stroke="#141B34" stroke-width="1.5" stroke-linecap="round" stroke-linejoin="round"/>
<path d="M16.25 9.25V11.25" stroke="#141B34" stroke-width="1.5" stroke-linecap="round" stroke-linejoin="round"/>
</svg>
